<?xml version="1.0" standalone="no"?>
<!DOCTYPE svg PUBLIC "-//W3C//DTD SVG 20010904//EN"
 "http://www.w3.org/TR/2001/REC-SVG-20010904/DTD/svg10.dtd">
<svg version="1.0" xmlns="http://www.w3.org/2000/svg"
 width="300.000000pt" height="300.000000pt" viewBox="0 0 300.000000 300.000000"
 preserveAspectRatio="xMidYMid meet">
<metadata>
Created by potrace 1.10, written by Peter Selinger 2001-2011
</metadata>
<g transform="translate(0.000000,300.000000) scale(0.100000,-0.100000)"
fill="#000000" stroke="none">
<path d="M1420 2685 c-166 -34 -298 -115 -334 -205 -9 -22 -18 -40 -20 -40 -2
0 -21 7 -42 16 -59 25 -100 8 -174 -73 -71 -78 -113 -160 -141 -275 -43 -179
-53 -212 -89 -287 -21 -42 -67 -124 -104 -182 -78 -125 -104 -191 -115 -302
-11 -113 -6 -341 9 -407 15 -66 58 -154 114 -234 l41 -59 0 -96 c0 -87 -3
-103 -30 -156 -24 -49 -36 -62 -65 -71 -19 -6 -36 -16 -38 -23 -11 -34 106
-121 165 -121 22 0 23 -3 18 -33 -9 -45 6 -55 102 -69 67 -10 89 -9 147 6 37
9 85 28 106 41 22 14 42 25 45 25 3 0 5 -19 6 -42 1 -60 12 -92 32 -96 21 -4
21 8 2 83 -22 85 -31 91 -94 70 -28 -9 -49 -21 -46 -25 3 -5 -3 -9 -12 -9 -10
0 -41 -5 -70 -12 -51 -11 -164 -5 -162 9 3 20 -3 25 -12 12 -8 -12 -9 -11 -5
5 6 25 -35 75 -62 75 -28 0 -71 24 -89 49 -13 20 -13 23 9 41 13 11 26 19 31
20 4 0 7 6 7 14 0 8 6 16 14 19 7 3 16 20 20 39 3 18 9 44 12 58 3 14 5 45 4
68 -1 24 4 49 9 56 7 8 6 20 -3 38 -8 14 -19 42 -25 61 -7 20 -18 41 -26 47
-8 7 -12 16 -9 21 3 5 -2 9 -11 9 -9 0 -13 5 -10 10 3 6 1 10 -5 10 -6 0 -8 5
-5 10 9 15 -14 41 -29 33 -6 -3 -8 -3 -4 2 4 4 1 20 -7 35 -32 62 -43 150 -40
324 2 94 5 182 8 196 9 52 28 109 37 115 6 3 10 14 10 23 1 24 95 184 104 175
4 -4 4 0 1 8 -3 9 6 27 22 45 15 16 28 38 28 48 1 11 7 22 14 24 6 2 9 8 6 13
-3 4 1 19 8 31 21 32 41 99 39 123 -3 17 -1 18 8 5 10 -12 11 -11 7 8 -3 12
-1 39 5 60 6 20 11 44 12 52 2 24 28 94 40 109 9 12 8 13 -3 6 -11 -6 -12 -5
-5 6 5 8 9 17 9 21 0 4 7 16 16 26 9 10 27 37 40 59 13 22 39 53 58 69 33 28
35 28 128 21 11 -1 19 -5 17 -9 -3 -4 5 -6 16 -5 10 1 22 7 25 15 3 7 9 11 14
8 5 -4 12 8 16 24 6 28 56 76 121 117 18 11 17 11 -3 6 -12 -3 -28 -11 -34
-19 -6 -8 -16 -14 -21 -14 -5 0 -3 7 6 15 19 19 139 75 161 75 10 0 13 5 9 11
-5 8 1 10 18 6 14 -4 28 -4 32 0 10 11 33 13 141 13 55 1 114 -3 132 -9 17 -5
33 -7 35 -5 2 2 35 -8 74 -22 38 -14 77 -28 87 -31 9 -3 17 -9 17 -13 0 -5 14
-11 31 -15 17 -4 33 -13 36 -21 3 -8 10 -14 17 -14 6 0 29 -16 50 -36 22 -19
51 -45 65 -57 68 -58 180 -234 165 -259 -4 -6 -3 -8 4 -4 11 7 28 -31 18 -41
-3 -3 1 -18 9 -33 8 -15 26 -74 40 -131 29 -113 61 -183 82 -175 7 3 13 1 13
-5 0 -6 7 -9 15 -5 23 8 18 -12 -10 -42 -29 -31 -32 -68 -9 -100 8 -12 12 -27
8 -34 -5 -7 -3 -8 5 -4 8 5 11 3 10 -5 -2 -8 5 -31 14 -53 9 -21 17 -45 17
-52 0 -8 5 -14 12 -14 6 0 9 -3 5 -6 -3 -3 3 -31 14 -62 48 -138 63 -279 44
-420 -8 -61 -51 -191 -75 -227 -11 -16 -25 -39 -32 -50 -7 -11 -20 -26 -28
-33 -13 -12 -13 -13 0 -6 13 6 -52 -71 -74 -87 -11 -8 -16 -120 -7 -134 4 -5
8 -23 10 -40 3 -34 40 -119 49 -111 3 3 10 -1 16 -9 6 -8 31 -21 55 -28 l44
-12 -43 -50 c-23 -28 -48 -52 -54 -54 -6 -2 -14 -10 -18 -17 -5 -6 -18 -10
-30 -7 -17 3 -19 2 -9 -5 15 -11 0 -15 -91 -27 -27 -3 -48 -11 -48 -16 0 -6
-4 -8 -8 -5 -4 2 -13 -4 -20 -15 -7 -10 -8 -19 -3 -19 5 0 8 -8 7 -17 -1 -13
7 -19 29 -21 l30 -2 -22 19 c-31 26 -30 43 2 35 43 -11 167 23 208 57 20 17
37 36 37 44 0 7 21 33 47 58 57 55 53 72 -17 80 -29 4 -62 14 -73 24 -32 29
-58 98 -64 173 l-6 70 45 47 c57 62 123 173 156 265 24 67 26 85 26 238 0 192
-10 241 -98 457 l-54 133 45 43 c44 41 73 84 73 108 0 8 -6 7 -18 -4 -31 -28
-73 -39 -103 -26 -31 12 -37 26 -69 162 -30 126 -74 251 -112 316 -48 81 -219
249 -295 289 -96 50 -185 81 -286 97 -109 18 -160 18 -247 0z"/>
<path d="M1525 2580 c3 -5 17 -10 31 -10 13 0 24 5 24 10 0 6 -14 10 -31 10
-17 0 -28 -4 -24 -10z"/>
<path d="M1328 2547 c-32 -12 -58 -26 -58 -30 0 -5 5 -5 12 -1 6 4 43 18 82
30 39 13 60 23 46 23 -14 0 -51 -10 -82 -22z"/>
<path d="M1753 2554 c7 -7 31 -17 92 -38 11 -4 4 2 -15 12 -39 22 -89 39 -77
26z"/>
<path d="M1190 2214 c0 -5 -23 -16 -50 -23 -46 -12 -109 -49 -85 -51 6 0 -8
-12 -30 -26 -22 -15 -32 -24 -23 -21 12 4 15 2 12 -8 -3 -8 -12 -11 -19 -9 -9
4 -14 -1 -13 -13 0 -10 -4 -49 -10 -88 -6 -38 -16 -116 -23 -173 -6 -56 -15
-105 -20 -108 -5 -3 -7 -10 -4 -15 4 -5 2 -9 -4 -9 -5 0 -10 -8 -10 -17 1 -25
-27 -98 -33 -87 -3 5 -3 3 -2 -4 2 -7 -8 -31 -21 -55 -14 -23 -33 -57 -42 -74
-9 -18 -20 -33 -25 -33 -4 0 -8 -7 -8 -16 0 -8 -4 -13 -9 -10 -5 3 -13 -16
-18 -43 -8 -41 -7 -53 8 -72 9 -12 15 -28 13 -34 -3 -7 14 -17 38 -25 24 -8
49 -18 56 -23 6 -5 24 -47 38 -93 14 -46 32 -91 40 -99 9 -8 12 -15 8 -15 -4
0 3 -11 16 -25 13 -14 21 -28 18 -31 -4 -3 11 -23 33 -43 21 -21 36 -41 34
-45 -3 -3 -2 -4 1 -2 9 6 55 -45 49 -55 -4 -5 2 -6 11 -2 12 4 15 3 10 -5 -4
-7 -4 -12 1 -12 4 0 33 -23 63 -51 30 -27 65 -54 78 -59 14 -6 20 -15 16 -22
-4 -6 -3 -8 4 -5 5 4 38 -7 72 -24 51 -27 74 -32 141 -34 43 -2 79 1 79 6 0 5
6 9 14 9 8 0 35 9 60 20 26 11 48 18 49 17 2 -1 11 6 21 15 10 10 24 18 32 18
8 0 14 5 14 11 0 6 7 9 15 5 9 -3 15 0 15 9 0 7 9 17 20 20 11 3 20 11 20 16
0 6 4 8 9 5 4 -3 19 6 32 20 13 15 31 29 41 33 28 10 128 141 165 215 20 39
40 74 45 77 5 3 8 12 6 19 -2 10 7 13 33 11 32 -2 41 2 64 33 25 33 28 47 34
149 5 88 3 126 -10 176 -9 36 -18 59 -21 51 -8 -26 -43 130 -47 213 -1 9 -25
42 -55 73 -29 30 -64 78 -77 107 -13 29 -27 54 -31 55 -5 2 -8 10 -8 17 0 25
-70 151 -99 179 -15 15 -37 26 -47 26 -94 -6 -373 -5 -393 1 -114 35 -132 38
-211 41 -36 2 -68 8 -72 13 -5 7 -8 6 -8 -1z m170 -52 c16 -22 142 -47 285
-58 l100 -7 49 -46 c77 -72 86 -83 121 -136 35 -53 62 -81 71 -73 3 3 -1 12
-8 19 -7 8 -24 36 -38 62 -29 55 -113 143 -161 169 -19 10 -52 19 -74 19 -112
3 -87 16 44 22 134 6 146 5 162 -12 10 -10 49 -81 86 -157 52 -106 80 -152
121 -192 31 -32 52 -62 52 -75 0 -37 26 -159 45 -207 27 -72 37 -148 32 -248
-5 -110 -21 -137 -73 -129 -41 7 -61 -15 -97 -103 -44 -105 -112 -187 -225
-273 -114 -85 -196 -128 -296 -153 -65 -16 -71 -16 -125 0 -97 30 -189 92
-296 200 -113 114 -163 192 -201 311 -34 108 -45 123 -84 117 -43 -6 -67 18
-75 80 -4 28 -3 53 2 57 14 10 87 130 127 210 49 97 75 201 85 342 9 128 25
165 95 227 36 32 43 34 126 50 43 8 140 -3 150 -16z"/>
<path d="M1051 2057 c-15 -24 -41 -113 -40 -137 0 -8 9 12 18 46 10 33 24 71
31 83 15 30 8 36 -9 8z"/>
<path d="M1112 1829 c-38 -19 -70 -54 -60 -65 3 -2 20 7 38 21 40 30 110 34
167 10 38 -16 127 -24 139 -13 19 20 -11 36 -94 52 -116 21 -138 20 -190 -5z"/>
<path d="M1783 1803 c-50 -5 -71 -24 -47 -43 13 -11 30 -11 103 3 130 25 143
24 185 -23 41 -45 46 -48 46 -21 0 10 -18 35 -40 55 -40 36 -41 36 -123 34
-45 -1 -101 -3 -124 -5z"/>
<path d="M1105 1640 c-11 -5 -39 -9 -61 -9 -45 -1 -68 -25 -35 -36 12 -3 23
-22 30 -51 15 -57 48 -91 97 -99 22 -4 81 -18 132 -32 74 -20 98 -23 117 -15
21 10 23 16 19 49 -20 137 -91 204 -216 202 -35 0 -72 -4 -83 -9z m40 -56
c-24 -22 -27 -31 -22 -70 5 -48 4 -49 -22 -34 -21 11 -54 86 -45 101 9 16 45
28 83 28 l34 1 -28 -26z m137 7 c19 -11 38 -18 41 -15 8 8 56 -98 59 -131 3
-29 2 -30 -37 -27 -22 2 -44 8 -49 13 -6 5 -19 9 -29 9 -17 0 -16 3 7 31 19
22 25 38 20 53 -8 28 -33 52 -63 61 -19 6 -23 4 -18 -9 3 -8 -1 -23 -10 -31
-14 -15 -18 -15 -31 -1 -19 19 -9 46 18 46 11 0 20 5 20 10 0 16 32 12 72 -9z
m-22 -75 c0 -29 -14 -41 -34 -29 -9 6 -11 15 -5 31 11 30 39 29 39 -2z m-95
-26 c16 -30 9 -40 -13 -18 -12 12 -17 48 -7 48 2 0 11 -13 20 -30z"/>
<path d="M1313 1548 c3 -9 2 -33 -3 -54 -10 -41 -5 -57 10 -34 14 21 12 87 -2
96 -7 5 -9 2 -5 -8z"/>
<path d="M1796 1585 c-49 -17 -89 -56 -112 -108 -10 -23 -21 -44 -24 -47 -3
-3 -6 -13 -8 -22 -5 -31 33 -40 146 -33 154 10 171 12 196 29 22 14 56 72 56
94 0 5 12 13 27 17 21 5 24 8 12 16 -7 5 -9 9 -4 10 6 1 -6 5 -25 9 -19 5 -60
18 -90 29 -64 24 -119 26 -174 6z m124 -67 c11 -24 20 -53 20 -66 0 -14 4 -21
11 -16 15 9 4 72 -17 95 -16 18 -16 19 4 19 35 0 92 -32 92 -52 0 -31 -61 -85
-103 -92 -21 -3 -37 -2 -35 2 2 4 10 20 18 35 12 25 12 32 -2 55 -9 15 -30 31
-47 36 -42 12 -39 26 4 26 33 0 38 -4 55 -42z m-83 -13 c-2 -5 -13 -11 -25
-13 -30 -5 -41 26 -16 45 16 12 20 11 32 -4 7 -9 11 -22 9 -28z m-85 -6 c-15
-38 -15 -44 0 -69 9 -16 14 -31 10 -34 -11 -12 -82 -6 -82 7 1 33 64 137 84
137 3 0 -3 -19 -12 -41z m54 -80 c15 -17 16 -19 1 -19 -21 0 -37 31 -36 67 l1
28 8 -29 c5 -15 17 -37 26 -47z m79 61 c9 -15 -15 -52 -32 -48 -23 4 -27 23
-8 42 19 18 31 20 40 6z"/>
<path d="M806 1301 c-4 -5 -2 -19 2 -31 7 -19 9 -20 21 -6 7 9 11 23 7 31 -6
17 -22 20 -30 6z"/>
<path d="M1422 1228 c-18 -18 -14 -56 7 -77 38 -38 152 -40 178 -4 15 20 17
62 3 83 -7 11 -10 8 -10 -16 0 -47 -20 -58 -88 -50 -60 7 -87 27 -78 59 5 20
4 21 -12 5z"/>
<path d="M1177 1103 c-13 -12 -7 -22 15 -25 14 -2 25 -14 32 -36 16 -46 85
-123 137 -151 l44 -23 -38 32 c-20 17 -35 36 -31 41 3 6 0 16 -6 24 -9 11 -9
15 -1 15 6 0 14 -7 17 -15 3 -8 30 -23 60 -35 57 -21 130 -25 199 -11 36 8 32
9 -34 10 -80 1 -90 14 -13 17 26 1 64 4 85 8 21 3 43 4 48 0 15 -9 -38 -66
-85 -92 -25 -14 -32 -20 -16 -16 77 19 175 92 204 151 9 18 16 34 16 38 0 13
-32 3 -51 -16 -28 -28 -75 -39 -179 -39 -179 0 -277 26 -335 86 -42 43 -55 51
-68 37z m278 -153 c3 -6 -2 -13 -11 -17 -10 -4 -19 -2 -22 5 -2 6 -9 9 -17 6
-7 -3 -16 -1 -20 5 -4 7 7 11 29 11 19 0 38 -5 41 -10z"/>
<path d="M1340 1082 c8 -6 33 -13 55 -16 22 -4 47 -12 55 -17 16 -11 -104 -4
-137 8 -10 3 -15 3 -11 -2 24 -26 283 -53 358 -37 43 9 42 10 -35 11 -67 1
-77 4 -60 13 11 7 49 12 85 11 52 -1 60 1 40 9 -23 9 -60 7 -166 -8 -27 -4
-51 -1 -70 9 -33 17 -139 34 -114 19z"/>
<path d="M1259 892 c33 -47 113 -114 160 -135 50 -22 128 -25 176 -7 74 27
199 130 180 148 -4 4 -16 -5 -26 -20 -22 -30 -86 -76 -152 -109 -33 -17 -53
-20 -100 -16 -67 6 -112 32 -193 115 -57 57 -76 68 -45 24z"/>
<path d="M1200 879 c0 -18 28 -59 41 -59 17 0 9 26 -16 50 -18 17 -25 19 -25
9z"/>
<path d="M1312 143 c-33 -29 -89 -129 -78 -140 18 -18 53 26 88 111 12 30 13
27 16 -41 3 -66 5 -73 24 -73 16 0 19 4 14 23 -3 12 -6 38 -6 58 0 21 -8 45
-19 58 -18 20 -19 21 -39 4z"/>
</g>
</svg>
